Topo_ital_20160223.ufo
<glyph name="H" format="1">
  <advance width="638"/>
  <unicode hex="0048"/>
  <outline>
    <contour>
      <point x="191" y="0" type="line"/>
      <point x="330" y="713" type="line"/>
      <point x="229" y="713" type="line"/>
      <point x="90" y="0" type="line"/>
    </contour>
    <contour>
      <point x="529" y="0" type="line"/>
      <point x="668" y="713" type="line"/>
      <point x="567" y="713" type="line"/>
      <point x="428" y="0" type="line"/>
    </contour>
    <contour>
      <point x="536" y="352"/>
      <point x="555" y="436"/>
      <point x="555" y="436" type="curve"/>
      <point x="241" y="436" type="line"/>
      <point x="241" y="436"/>
      <point x="221" y="352"/>
      <point x="221" y="352" type="curve"/>
      <point x="536" y="352" type="line"/>
    </contour>
  </outline>
</glyph>
<glyph name="I" format="1">
  <advance width="288"/>
  <unicode hex="0049"/>
  <outline>
    <contour>
      <point x="410" y="629"/>
      <point x="427" y="713"/>
      <point x="427" y="713" type="curve"/>
      <point x="138" y="713" type="line"/>
      <point x="138" y="713"/>
      <point x="121" y="629"/>
      <point x="121" y="629" type="curve"/>
      <point x="410" y="629" type="line"/>
    </contour>
    <contour>
      <point x="277" y="0"/>
      <point x="293" y="84"/>
      <point x="293" y="84" type="curve"/>
      <point x="26" y="84" type="line"/>
      <point x="26" y="84"/>
      <point x="10" y="0"/>
      <point x="10" y="0" type="curve"/>
      <point x="277" y="0" type="line"/>
    </contour>
    <contour>
      <point x="194" y="0" type="line"/>
      <point x="333" y="713" type="line"/>
      <point x="232" y="713" type="line"/>
      <point x="93" y="0" type="line"/>
    </contour>
  </outline>
</glyph>
<glyph name="M" format="1">
  <advance width="752"/>
  <unicode hex="004D"/>
  <outline>
    <contour>
      <point x="220" y="713" type="line"/>
      <point x="83" y="0" type="line"/>
      <point x="184" y="0" type="line"/>
      <point x="314" y="677" type="line"/>
      <point x="302" y="677" type="line"/>
      <point x="343" y="231" type="line"/>
      <point x="467" y="231" type="line"/>
      <point x="686" y="693" type="line"/>
      <point x="668" y="693" type="line"/>
      <point x="533" y="0" type="line"/>
      <point x="634" y="0" type="line"/>
      <point x="773" y="713" type="line"/>
      <point x="606" y="713" type="line"/>
      <point x="388" y="251" type="line"/>
      <point x="419" y="251" type="line"/>
      <point x="374" y="713" type="line"/>
    </contour>
  </outline>
</glyph>
<glyph name="N" format="1">
  <advance width="619"/>
  <unicode hex="004E"/>
  <outline>
    <contour>
      <point x="398" y="0" type="line"/>
      <point x="315" y="713" type="line"/>
      <point x="221" y="713" type="line"/>
      <point x="304" y="0" type="line"/>
    </contour>
    <contour>
      <point x="104" y="0" type="line"/>
      <point x="243" y="713" type="line"/>
      <point x="142" y="713" type="line"/>
      <point x="3" y="0" type="line"/>
    </contour>
    <contour>
      <point x="476" y="0" type="line"/>
      <point x="615" y="713" type="line"/>
      <point x="514" y="713" type="line"/>
      <point x="375" y="0" type="line"/>
    </contour>
  </outline>
</glyph>
<glyph name="O" format="1">
  <advance width="652"/>
  <unicode hex="004F"/>
  <outline>
    <contour>
      <point x="186" y="-12"/>
      <point x="126" y="110"/>
      <point x="126" y="257" type="curve" smooth="yes"/>
      <point x="126" y="513"/>
      <point x="240" y="725"/>
      <point x="460" y="725" type="curve" smooth="yes"/>
      <point x="612" y="725"/>
      <point x="661" y="620"/>
      <point x="661" y="492" type="curve" smooth="yes"/>
      <point x="661" y="192"/>
      <point x="521" y="-12"/>
      <point x="316" y="-12" type="curve"/>
    </contour>
    <contour>
      <point x="275" y="638"/>
      <point x="233" y="418"/>
      <point x="233" y="239" type="curve" smooth="yes"/>
      <point x="233" y="140"/>
      <point x="257" y="74"/>
      <point x="334" y="74" type="curve"/>
      <point x="480" y="74"/>
      <point x="554" y="283"/>
      <point x="554" y="502" type="curve" smooth="yes"/>
      <point x="554" y="594"/>
      <point x="526" y="638"/>
      <point x="442" y="638" type="curve"/>
    </contour>
  </outline>
</glyph>
<glyph name="Q" format="1">
  <advance width="652"/>
  <unicode hex="0051"/>
  <outline>
    <contour>
      <point x="341" y="174" type="curve"/>
      <point x="433" y="174" type="line"/>
      <point x="464" y="98"/>
      <point x="521" y="-67"/>
      <point x="564" y="-133" type="curve"/>
      <point x="441" y="-133" type="line"/>
      <point x="411" y="-71"/>
      <point x="359" y="98"/>
    </contour>
    <contour>
      <point x="275" y="638"/>
      <point x="233" y="418"/>
      <point x="233" y="239" type="curve" smooth="yes"/>
      <point x="233" y="140"/>
      <point x="257" y="74"/>
      <point x="334" y="74" type="curve"/>
      <point x="480" y="74"/>
      <point x="554" y="283"/>
      <point x="554" y="502" type="curve" smooth="yes"/>
      <point x="554" y="594"/>
      <point x="526" y="638"/>
      <point x="442" y="638" type="curve"/>
    </contour>
    <contour>
      <point x="186" y="-12"/>
      <point x="126" y="110"/>
      <point x="126" y="257" type="curve" smooth="yes"/>
      <point x="126" y="513"/>
      <point x="240" y="725"/>
      <point x="460" y="725" type="curve" smooth="yes"/>
      <point x="612" y="725"/>
      <point x="661" y="620"/>
      <point x="661" y="492" type="curve" smooth="yes"/>
      <point x="661" y="192"/>
      <point x="521" y="-12"/>
      <point x="316" y="-12" type="curve"/>
    </contour>
  </outline>
</glyph>
<glyph name="S" format="1">
  <advance width="516"/>
  <unicode hex="0053"/>
  <outline>
    <contour>
      <point x="493" y="258"/>
      <point x="467" y="303"/>
      <point x="381" y="382" type="curve" smooth="yes"/>
      <point x="311" y="447"/>
      <point x="285" y="480"/>
      <point x="285" y="524" type="curve" smooth="yes"/>
      <point x="285" y="589"/>
      <point x="335" y="633"/>
      <point x="392" y="634" type="curve" smooth="yes"/>
      <point x="439" y="635"/>
      <point x="496" y="618"/>
      <point x="558" y="563" type="curve"/>
      <point x="585" y="661" type="line"/>
      <point x="533" y="698"/>
      <point x="458" y="724"/>
      <point x="393" y="724" type="curve" smooth="yes"/>
      <point x="271" y="724"/>
      <point x="176" y="654"/>
      <point x="176" y="529" type="curve" smooth="yes"/>
      <point x="176" y="459"/>
      <point x="214" y="402"/>
      <point x="299" y="321" type="curve" smooth="yes"/>
      <point x="338" y="284"/>
      <point x="377" y="254"/>
      <point x="377" y="190" type="curve"/>
      <point x="377" y="125"/>
      <point x="336" y="80"/>
      <point x="259" y="80" type="curve" smooth="yes"/>
      <point x="200" y="80"/>
      <point x="156" y="103"/>
      <point x="94" y="151" type="curve"/>
      <point x="72" y="36" type="line"/>
      <point x="122" y="9"/>
      <point x="192" y="-12"/>
      <point x="261" y="-12" type="curve" smooth="yes"/>
      <point x="392" y="-12"/>
      <point x="493" y="70"/>
      <point x="493" y="190" type="curve" smooth="yes"/>
    </contour>
  </outline>
</glyph>
<glyph name="b" format="1">
  <advance width="551"/>
  <unicode hex="0062"/>
  <outline>
    <contour>
      <point x="212" y="725" type="line"/>
      <point x="83" y="61" type="line"/>
      <point x="121" y="29"/>
      <point x="208" y="-12"/>
      <point x="279" y="-12" type="curve" smooth="yes"/>
      <point x="433" y="-12"/>
      <point x="555" y="136"/>
      <point x="555" y="332" type="curve" smooth="yes"/>
      <point x="555" y="459"/>
      <point x="507" y="524"/>
      <point x="411" y="524" type="curve" smooth="yes"/>
      <point x="314" y="524"/>
      <point x="245" y="465"/>
      <point x="189" y="367" type="curve"/>
      <point x="218" y="307" type="line"/>
      <point x="257" y="379"/>
      <point x="316" y="439"/>
      <point x="382" y="439" type="curve" smooth="yes"/>
      <point x="444" y="439"/>
      <point x="456" y="394"/>
      <point x="456" y="332" type="curve" smooth="yes"/>
      <point x="456" y="205"/>
      <point x="390" y="69"/>
      <point x="277" y="69" type="curve" smooth="yes"/>
      <point x="236" y="69"/>
      <point x="208" y="81"/>
      <point x="187" y="96" type="curve"/>
      <point x="309" y="725" type="line"/>
    </contour>
  </outline>
</glyph>
<glyph name="c" format="1">
  <advance width="451"/>
  <unicode hex="0063"/>
  <outline>
    <contour>
      <point x="365.0" y="524.0" type="curve" smooth="yes"/>
      <point x="206.0" y="524.0"/>
      <point x="94.0" y="369.0"/>
      <point x="94.0" y="204.0" type="curve" smooth="yes"/>
      <point x="94.0" y="47.0"/>
      <point x="199.0" y="-11.0"/>
      <point x="290.0" y="-12.0" type="curve" smooth="yes"/>
      <point x="360.0" y="-13.0"/>
      <point x="426.0" y="16.0"/>
      <point x="458.0" y="42.0" type="curve"/>
      <point x="450" y="130" type="line"/>
      <point x="399" y="91"/>
      <point x="354.0" y="69.0"/>
      <point x="295.0" y="69.0" type="curve" smooth="yes"/>
      <point x="225.0" y="69.0"/>
      <point x="191.0" y="125.0"/>
      <point x="191.0" y="204.0" type="curve" smooth="yes"/>
      <point x="191.0" y="316.0"/>
      <point x="247.0" y="439.0"/>
      <point x="363.0" y="439.0" type="curve" smooth="yes"/>
      <point x="423.0" y="439.0"/>
      <point x="439.0" y="421.0"/>
      <point x="498.0" y="398.0" type="curve"/>
      <point x="498.0" y="488.0" type="line"/>
      <point x="457.0" y="516.0"/>
      <point x="405.0" y="524.0"/>
    </contour>
  </outline>
</glyph>
<glyph name="d" format="1">
  <advance width="539"/>
  <unicode hex="0064"/>
  <outline>
    <contour>
      <point x="506" y="726" type="line"/>
      <point x="387" y="113" type="line"/>
      <point x="414" y="132" type="line"/>
      <point x="428" y="127" type="line"/>
      <point x="404" y="76"/>
      <point x="403" y="34"/>
      <point x="405" y="0" type="curve"/>
      <point x="502" y="0" type="line"/>
      <point x="502" y="70"/>
      <point x="477" y="78"/>
      <point x="522" y="309" type="curve" smooth="yes"/>
      <point x="603" y="726" type="line"/>
    </contour>
    <contour>
      <point x="422" y="274" type="line"/>
      <point x="397" y="133"/>
      <point x="332" y="69"/>
      <point x="257" y="69" type="curve" smooth="yes"/>
      <point x="199" y="69"/>
      <point x="179" y="119"/>
      <point x="179" y="184" type="curve" smooth="yes"/>
      <point x="179" y="296"/>
      <point x="235" y="439"/>
      <point x="350" y="439" type="curve" smooth="yes"/>
      <point x="399" y="439"/>
      <point x="419" y="433"/>
      <point x="463" y="404" type="curve"/>
      <point x="463" y="404"/>
      <point x="496" y="455"/>
      <point x="496" y="455" type="curve"/>
      <point x="459" y="496"/>
      <point x="418" y="524"/>
      <point x="342" y="524" type="curve" smooth="yes"/>
      <point x="180" y="524"/>
      <point x="83" y="354"/>
      <point x="83" y="184" type="curve" smooth="yes"/>
      <point x="83" y="63"/>
      <point x="147" y="-12"/>
      <point x="241" y="-12" type="curve" smooth="yes"/>
      <point x="366" y="-12"/>
      <point x="437" y="119"/>
      <point x="474" y="255" type="curve"/>
    </contour>
  </outline>
</glyph>
<glyph name="e" format="1">
  <advance width="510"/>
  <unicode hex="0065"/>
  <outline>
    <contour>
      <point x="208" y="524"/>
      <point x="94" y="362"/>
      <point x="94" y="199" type="curve"/>
      <point x="94" y="70"/>
      <point x="158" y="-12"/>
      <point x="279" y="-12" type="curve" smooth="yes"/>
      <point x="338" y="-12"/>
      <point x="419" y="6"/>
      <point x="467" y="55" type="curve"/>
      <point x="439" y="126" type="line"/>
      <point x="376" y="79"/>
      <point x="320" y="69"/>
      <point x="281" y="69" type="curve" smooth="yes"/>
      <point x="212" y="69"/>
      <point x="191" y="110"/>
      <point x="191" y="199" type="curve" smooth="yes"/>
      <point x="191" y="315"/>
      <point x="250" y="439"/>
      <point x="364" y="439" type="curve" smooth="yes"/>
      <point x="411" y="439"/>
      <point x="430" y="414"/>
      <point x="430" y="380" type="curve" smooth="yes"/>
      <point x="430" y="285"/>
      <point x="297" y="250"/>
      <point x="165" y="250" type="curve"/>
      <point x="165" y="174" type="line"/>
      <point x="324" y="174"/>
      <point x="527" y="236"/>
      <point x="527" y="379" type="curve" smooth="yes"/>
      <point x="527" y="464"/>
      <point x="475" y="524"/>
      <point x="364" y="524" type="curve"/>
    </contour>
  </outline>
</glyph>
<glyph name="f" format="1">
  <advance width="317"/>
  <unicode hex="0066"/>
  <outline>
    <contour>
      <point x="400" y="395" type="line"/>
      <point x="416" y="479" type="line"/>
      <point x="98" y="479" type="line"/>
      <point x="82" y="395" type="line"/>
    </contour>
    <contour>
      <point x="102" y="-41" type="line"/>
      <point x="199" y="-41" type="line"/>
      <point x="306" y="509" type="line"/>
      <point x="306" y="509"/>
      <point x="209" y="509"/>
      <point x="209" y="509" type="curve"/>
    </contour>
    <contour>
      <point x="503" y="711" type="line"/>
      <point x="474" y="724"/>
      <point x="428" y="735"/>
      <point x="396" y="735" type="curve" smooth="yes"/>
      <point x="286" y="735"/>
      <point x="241" y="678"/>
      <point x="220" y="565" type="curve" smooth="yes"/>
      <point x="205" y="488" type="line"/>
      <point x="300" y="479" type="line"/>
      <point x="317" y="564" type="line" smooth="yes"/>
      <point x="329" y="625"/>
      <point x="348" y="656"/>
      <point x="396" y="656" type="curve" smooth="yes"/>
      <point x="439" y="656"/>
      <point x="464" y="641"/>
      <point x="489" y="621" type="curve"/>
    </contour>
    <contour>
      <point x="-114.0" y="-208.0" type="line"/>
      <point x="-81.0" y="-225.0"/>
      <point x="-45.0" y="-233.0"/>
      <point x="14.0" y="-233.0" type="curve" smooth="yes"/>
      <point x="125.0" y="-233.0"/>
      <point x="176.0" y="-158.0"/>
      <point x="194.0" y="-67.0" type="curve" smooth="yes"/>
      <point x="213.0" y="31.0" type="line"/>
      <point x="114.0" y="19.0" type="line"/>
      <point x="99.0" y="-55.0" type="line" smooth="yes"/>
      <point x="85.0" y="-124.0"/>
      <point x="53.0" y="-148.0"/>
      <point x="-3.0" y="-148.0" type="curve" smooth="yes"/>
      <point x="-41.0" y="-148.0"/>
      <point x="-69.0" y="-135.0"/>
      <point x="-93.0" y="-121.0" type="curve"/>
    </contour>
  </outline>
</glyph>
<glyph name="i" format="1">
  <advance width="257"/>
  <unicode hex="0069"/>
  <outline>
    <contour>
      <point x="254" y="613" type="curve" smooth="yes"/>
      <point x="305" y="613"/>
      <point x="329" y="634"/>
      <point x="329" y="674" type="curve" smooth="yes"/>
      <point x="329" y="714"/>
      <point x="305" y="735"/>
      <point x="254" y="735" type="curve" smooth="yes"/>
      <point x="202" y="735"/>
      <point x="180" y="714"/>
      <point x="180" y="674" type="curve" smooth="yes"/>
      <point x="180" y="634"/>
      <point x="203" y="613"/>
    </contour>
    <contour>
      <point x="179" y="0" type="line"/>
      <point x="279" y="512" type="line"/>
      <point x="178" y="512" type="line"/>
      <point x="78" y="0" type="line"/>
    </contour>
  </outline>
</glyph>
<glyph name="j" format="1">
  <advance width="257"/>
  <unicode hex="006A"/>
  <outline>
    <contour>
      <point x="-139" y="-113" type="curve"/>
      <point x="-160" y="-200" type="line"/>
      <point x="-113" y="-229"/>
      <point x="-70" y="-233"/>
      <point x="-14" y="-233" type="curve" smooth="yes"/>
      <point x="91" y="-233"/>
      <point x="145" y="-161"/>
      <point x="166" y="-51" type="curve" smooth="yes"/>
      <point x="278" y="524" type="line"/>
      <point x="181" y="524" type="line"/>
      <point x="73" y="-31" type="line" smooth="yes"/>
      <point x="57" y="-114"/>
      <point x="36" y="-148"/>
      <point x="-33" y="-148" type="curve" smooth="yes"/>
      <point x="-80" y="-148"/>
      <point x="-107" y="-131"/>
    </contour>
    <contour>
      <point x="254" y="613" type="curve" smooth="yes"/>
      <point x="305" y="613"/>
      <point x="329" y="634"/>
      <point x="329" y="674" type="curve" smooth="yes"/>
      <point x="329" y="714"/>
      <point x="305" y="735"/>
      <point x="254" y="735" type="curve" smooth="yes"/>
      <point x="202" y="735"/>
      <point x="180" y="714"/>
      <point x="180" y="674" type="curve" smooth="yes"/>
      <point x="180" y="634"/>
      <point x="203" y="613"/>
    </contour>
  </outline>
</glyph>
<glyph name="k" format="1">
  <advance width="440"/>
  <unicode hex="006B"/>
  <outline>
    <contour>
      <point x="170" y="0" type="line"/>
      <point x="170" y="0"/>
      <point x="311" y="725"/>
      <point x="311" y="725" type="curve"/>
      <point x="214" y="725" type="line"/>
      <point x="214" y="725"/>
      <point x="73" y="0"/>
      <point x="73" y="0" type="curve"/>
    </contour>
    <contour>
      <point x="372" y="0" type="line"/>
      <point x="475" y="0" type="line"/>
      <point x="289" y="323" type="line"/>
      <point x="286" y="249" type="line"/>
      <point x="366" y="333"/>
      <point x="441" y="395"/>
      <point x="526" y="512" type="curve"/>
      <point x="414" y="512" type="line"/>
      <point x="351" y="435"/>
      <point x="289" y="369"/>
      <point x="207" y="285" type="curve"/>
    </contour>
  </outline>
</glyph>
<glyph name="m" format="1">
  <advance width="799"/>
  <unicode hex="006D"/>
  <outline>
    <contour>
      <point x="472" y="299" type="curve"/>
      <point x="530" y="354"/>
      <point x="590" y="439"/>
      <point x="654" y="439" type="curve" smooth="yes"/>
      <point x="701" y="439"/>
      <point x="712" y="406"/>
      <point x="712" y="372" type="curve" smooth="yes"/>
      <point x="712" y="337"/>
      <point x="699" y="291"/>
      <point x="689" y="242" type="curve" smooth="yes"/>
      <point x="642" y="0" type="line"/>
      <point x="739" y="0" type="line"/>
      <point x="779" y="206" type="line" smooth="yes"/>
      <point x="793" y="278"/>
      <point x="812" y="341"/>
      <point x="812" y="390" type="curve" smooth="yes"/>
      <point x="812" y="477"/>
      <point x="765" y="524"/>
      <point x="686" y="524" type="curve" smooth="yes"/>
      <point x="601" y="524"/>
      <point x="532" y="449"/>
      <point x="477" y="399" type="curve"/>
      <point x="456" y="291" type="line"/>
      <point x="456" y="291"/>
      <point x="472" y="299"/>
    </contour>
    <contour>
      <point x="172" y="0" type="line"/>
      <point x="247" y="386" type="line"/>
      <point x="232" y="383" type="line"/>
      <point x="241" y="436"/>
      <point x="239" y="479"/>
      <point x="239" y="512" type="curve"/>
      <point x="145" y="512" type="line"/>
      <point x="145" y="467"/>
      <point x="156" y="417"/>
      <point x="139" y="329" type="curve" smooth="yes"/>
      <point x="75" y="0" type="line"/>
    </contour>
    <contour>
      <point x="188" y="299" type="curve"/>
      <point x="246" y="354"/>
      <point x="306" y="439"/>
      <point x="370" y="439" type="curve" smooth="yes"/>
      <point x="417" y="439"/>
      <point x="428" y="406"/>
      <point x="428" y="372" type="curve" smooth="yes"/>
      <point x="428" y="337"/>
      <point x="415" y="291"/>
      <point x="405" y="242" type="curve" smooth="yes"/>
      <point x="358" y="0" type="line"/>
      <point x="455" y="0" type="line"/>
      <point x="495" y="206" type="line" smooth="yes"/>
      <point x="509" y="278"/>
      <point x="528" y="341"/>
      <point x="528" y="390" type="curve" smooth="yes"/>
      <point x="528" y="477"/>
      <point x="481" y="524"/>
      <point x="402" y="524" type="curve" smooth="yes"/>
      <point x="317" y="524"/>
      <point x="248" y="449"/>
      <point x="193" y="399" type="curve"/>
      <point x="172" y="291" type="line"/>
      <point x="172" y="291"/>
      <point x="188" y="299"/>
    </contour>
  </outline>
</glyph>
<glyph name="n" format="1">
  <advance width="547"/>
  <unicode hex="006E"/>
  <outline>
    <contour>
      <point x="172" y="0" type="line"/>
      <point x="247" y="386" type="line"/>
      <point x="229" y="386" type="line"/>
      <point x="238" y="439"/>
      <point x="245" y="475"/>
      <point x="243" y="512" type="curve"/>
      <point x="144" y="512" type="line"/>
      <point x="144" y="467"/>
      <point x="158" y="426"/>
      <point x="139" y="329" type="curve" smooth="yes"/>
      <point x="75" y="0" type="line"/>
    </contour>
    <contour>
      <point x="216" y="306" type="curve"/>
      <point x="287" y="403"/>
      <point x="343" y="439"/>
      <point x="392" y="439" type="curve" smooth="yes"/>
      <point x="439" y="439"/>
      <point x="450" y="406"/>
      <point x="450" y="372" type="curve" smooth="yes"/>
      <point x="450" y="337"/>
      <point x="437" y="291"/>
      <point x="427" y="242" type="curve" smooth="yes"/>
      <point x="380" y="0" type="line"/>
      <point x="477" y="0" type="line"/>
      <point x="517" y="206" type="line" smooth="yes"/>
      <point x="531" y="278"/>
      <point x="550" y="341"/>
      <point x="550" y="390" type="curve" smooth="yes"/>
      <point x="550" y="477"/>
      <point x="503" y="525"/>
      <point x="424" y="524" type="curve" smooth="yes"/>
      <point x="334" y="523"/>
      <point x="257" y="466"/>
      <point x="200" y="371" type="curve"/>
      <point x="200" y="298" type="line"/>
      <point x="200" y="298"/>
      <point x="216" y="306"/>
    </contour>
  </outline>
</glyph>
<glyph name="p" format="1">
  <advance width="555"/>
  <unicode hex="0070"/>
  <outline>
    <contour>
      <point x="125" y="54" type="curve"/>
      <point x="171" y="17"/>
      <point x="208" y="-12"/>
      <point x="279" y="-12" type="curve" smooth="yes"/>
      <point x="439" y="-12"/>
      <point x="559" y="136"/>
      <point x="559" y="332" type="curve" smooth="yes"/>
      <point x="559" y="459"/>
      <point x="512" y="524"/>
      <point x="414" y="524" type="curve" smooth="yes"/>
      <point x="333" y="524"/>
      <point x="250" y="477"/>
      <point x="186" y="352" type="curve"/>
      <point x="186" y="352"/>
      <point x="125" y="54"/>
    </contour>
    <contour>
      <point x="226" y="317" type="line"/>
      <point x="280" y="399"/>
      <point x="334" y="439"/>
      <point x="387" y="439" type="curve" smooth="yes"/>
      <point x="438" y="439"/>
      <point x="460" y="409"/>
      <point x="460" y="332" type="curve" smooth="yes"/>
      <point x="460" y="205"/>
      <point x="396" y="69"/>
      <point x="278" y="69" type="curve" smooth="yes"/>
      <point x="236" y="69"/>
      <point x="207" y="83"/>
      <point x="184" y="101" type="curve"/>
    </contour>
    <contour>
      <point x="130.0" y="-216.0" type="line"/>
      <point x="247.0" y="386.0" type="line"/>
      <point x="223" y="386" type="line"/>
      <point x="218" y="394" type="line"/>
      <point x="235" y="447"/>
      <point x="242" y="475"/>
      <point x="245" y="512" type="curve"/>
      <point x="139" y="512" type="line"/>
      <point x="142" y="459"/>
      <point x="155" y="410"/>
      <point x="137.0" y="319.0" type="curve" smooth="yes"/>
      <point x="33.0" y="-216.0" type="line"/>
    </contour>
  </outline>
</glyph>
<glyph name="q" format="1">
  <advance width="535"/>
  <unicode hex="0071"/>
  <outline>
    <contour>
      <point x="426" y="288" type="line"/>
      <point x="399" y="136"/>
      <point x="336" y="69"/>
      <point x="256" y="69" type="curve" smooth="yes"/>
      <point x="203" y="69"/>
      <point x="179" y="113"/>
      <point x="179" y="184" type="curve" smooth="yes"/>
      <point x="179" y="296"/>
      <point x="235" y="439"/>
      <point x="350" y="439" type="curve" smooth="yes"/>
      <point x="407" y="439"/>
      <point x="434" y="422"/>
      <point x="460" y="395" type="curve"/>
      <point x="460" y="395"/>
      <point x="544" y="471"/>
      <point x="544" y="471" type="curve"/>
      <point x="480" y="491"/>
      <point x="436" y="524"/>
      <point x="350" y="524" type="curve" smooth="yes"/>
      <point x="184" y="524"/>
      <point x="83" y="354"/>
      <point x="83" y="184" type="curve" smooth="yes"/>
      <point x="83" y="63"/>
      <point x="145" y="-12"/>
      <point x="239" y="-12" type="curve" smooth="yes"/>
      <point x="364" y="-12"/>
      <point x="441" y="118"/>
      <point x="478" y="269" type="curve"/>
    </contour>
    <contour>
      <point x="420.0" y="-216.0" type="line"/>
      <point x="420.0" y="-216.0"/>
      <point x="553.0" y="468.0"/>
      <point x="553.0" y="468.0" type="curve"/>
      <point x="544" y="471" type="line"/>
      <point x="455.0" y="463.0" type="line"/>
      <point x="455.0" y="463.0"/>
      <point x="323.0" y="-216.0"/>
      <point x="323.0" y="-216.0" type="curve"/>
    </contour>
  </outline>
</glyph>
<glyph name="r" format="1">
  <advance width="332"/>
  <unicode hex="0072"/>
  <outline>
    <contour>
      <point x="212" y="243" type="curve"/>
      <point x="260" y="386"/>
      <point x="324" y="412"/>
      <point x="378" y="412" type="curve" smooth="yes"/>
      <point x="390" y="412"/>
      <point x="397" y="411"/>
      <point x="404" y="410" type="curve"/>
      <point x="424" y="515" type="line"/>
      <point x="416" y="516"/>
      <point x="408" y="518"/>
      <point x="396" y="518" type="curve" smooth="yes"/>
      <point x="298" y="518"/>
      <point x="249" y="421"/>
      <point x="197" y="334" type="curve"/>
      <point x="185" y="301" type="line"/>
      <point x="185" y="301"/>
      <point x="212" y="243"/>
    </contour>
    <contour>
      <point x="172" y="0" type="line"/>
      <point x="247" y="386" type="line"/>
      <point x="226" y="386" type="line"/>
      <point x="235" y="439"/>
      <point x="249" y="479"/>
      <point x="249" y="512" type="curve"/>
      <point x="145" y="512" type="line"/>
      <point x="145" y="467"/>
      <point x="156" y="417"/>
      <point x="139" y="329" type="curve" smooth="yes"/>
      <point x="75" y="0" type="line"/>
    </contour>
  </outline>
</glyph>
<glyph name="s" format="1">
  <advance width="372"/>
  <unicode hex="0073"/>
  <outline>
    <contour>
      <point x="388" y="191"/>
      <point x="367" y="223"/>
      <point x="297" y="272" type="curve" smooth="yes"/>
      <point x="243" y="310"/>
      <point x="214" y="324"/>
      <point x="214" y="373" type="curve" smooth="yes"/>
      <point x="214" y="406"/>
      <point x="238" y="439"/>
      <point x="292" y="439" type="curve" smooth="yes"/>
      <point x="351" y="439"/>
      <point x="385" y="420"/>
      <point x="419" y="400" type="curve"/>
      <point x="431" y="482" type="line"/>
      <point x="394" y="504"/>
      <point x="361" y="524"/>
      <point x="296" y="524" type="curve" smooth="yes"/>
      <point x="191" y="524"/>
      <point x="113" y="459"/>
      <point x="113" y="374" type="curve" smooth="yes"/>
      <point x="113" y="311"/>
      <point x="149" y="267"/>
      <point x="214" y="223" type="curve" smooth="yes"/>
      <point x="272" y="184"/>
      <point x="292" y="163"/>
      <point x="292" y="138" type="curve"/>
      <point x="292" y="95"/>
      <point x="252" y="64"/>
      <point x="203" y="64" type="curve" smooth="yes"/>
      <point x="162" y="64"/>
      <point x="122" y="91"/>
      <point x="74" y="123" type="curve"/>
      <point x="45" y="38" type="line"/>
      <point x="98" y="6"/>
      <point x="158" y="-12"/>
      <point x="216" y="-12" type="curve" smooth="yes"/>
      <point x="313" y="-12"/>
      <point x="388" y="55"/>
      <point x="388" y="142" type="curve" smooth="yes"/>
    </contour>
  </outline>
</glyph>
<glyph name="t" format="1">
  <advance width="333"/>
  <unicode hex="0074"/>
  <outline>
    <contour>
      <point x="389" y="427" type="line"/>
      <point x="407" y="511" type="line"/>
      <point x="105" y="511" type="line"/>
      <point x="87" y="427" type="line"/>
    </contour>
    <contour>
      <point x="217" y="653" type="line"/>
      <point x="139" y="252" type="line"/>
      <point x="139" y="252"/>
      <point x="235" y="247"/>
      <point x="235" y="247" type="curve"/>
      <point x="314" y="653" type="line"/>
    </contour>
    <contour>
      <point x="332.0" y="84.0" type="line"/>
      <point x="307.0" y="75.0"/>
      <point x="279.0" y="70.0"/>
      <point x="258.0" y="70.0" type="curve" smooth="yes"/>
      <point x="234.0" y="70.0"/>
      <point x="212.0" y="81.0"/>
      <point x="212.0" y="116.0" type="curve" smooth="yes"/>
      <point x="212.0" y="144.0"/>
      <point x="226.0" y="203.0"/>
      <point x="234.0" y="242.0" type="curve" smooth="yes"/>
      <point x="243.0" y="288.0" type="line"/>
      <point x="146.0" y="288.0" type="line"/>
      <point x="132.0" y="216.0" type="line" smooth="yes"/>
      <point x="123.0" y="169.0"/>
      <point x="113.0" y="126.0"/>
      <point x="113.0" y="92.0" type="curve"/>
      <point x="113.0" y="33.0"/>
      <point x="157.0" y="-6.0"/>
      <point x="222.0" y="-6.0" type="curve" smooth="yes"/>
      <point x="266.0" y="-6.0"/>
      <point x="299.0" y="3.0"/>
      <point x="321.0" y="12.0" type="curve"/>
    </contour>
  </outline>
</glyph>
<glyph name="u" format="1">
  <advance width="537"/>
  <unicode hex="0075"/>
  <outline>
    <contour>
      <point x="463" y="512" type="line"/>
      <point x="389" y="126" type="line"/>
      <point x="403" y="129" type="line"/>
      <point x="394" y="76"/>
      <point x="396" y="33"/>
      <point x="396" y="0" type="curve"/>
      <point x="490" y="0" type="line"/>
      <point x="490" y="45"/>
      <point x="479" y="95"/>
      <point x="496" y="183" type="curve" smooth="yes"/>
      <point x="560" y="512" type="line"/>
    </contour>
    <contour>
      <point x="418" y="209" type="curve"/>
      <point x="348" y="114"/>
      <point x="295" y="73"/>
      <point x="247" y="73" type="curve" smooth="yes"/>
      <point x="203" y="73"/>
      <point x="193" y="106"/>
      <point x="193" y="140" type="curve" smooth="yes"/>
      <point x="193" y="175"/>
      <point x="207" y="222"/>
      <point x="217" y="271" type="curve" smooth="yes"/>
      <point x="264" y="512" type="line"/>
      <point x="167" y="512" type="line"/>
      <point x="127" y="307" type="line" smooth="yes"/>
      <point x="113" y="235"/>
      <point x="93" y="171"/>
      <point x="93" y="122" type="curve" smooth="yes"/>
      <point x="93" y="36"/>
      <point x="139" y="-12"/>
      <point x="215" y="-12" type="curve" smooth="yes"/>
      <point x="303" y="-12"/>
      <point x="378" y="51"/>
      <point x="434" y="144" type="curve"/>
      <point x="434" y="217" type="line"/>
      <point x="434" y="217"/>
      <point x="418" y="209"/>
    </contour>
  </outline>
</glyph>
<glyph name="v" format="1">
  <advance width="499"/>
  <unicode hex="0076"/>
  <outline>
    <contour>
      <point x="184" y="0" type="curve"/>
      <point x="317" y="0" type="line"/>
      <point x="456" y="191"/>
      <point x="515" y="356"/>
      <point x="542" y="512" type="curve"/>
      <point x="445" y="512" type="line"/>
      <point x="419" y="389"/>
      <point x="356" y="204"/>
      <point x="257" y="57" type="curve"/>
      <point x="212" y="8" type="line"/>
      <point x="265" y="8" type="line"/>
      <point x="256" y="237"/>
      <point x="246" y="381"/>
      <point x="230" y="512" type="curve"/>
      <point x="130" y="512" type="line"/>
      <point x="147" y="384"/>
      <point x="157" y="224"/>
    </contour>
  </outline>
</glyph>
<glyph name="y" format="1">
  <advance width="499"/>
  <unicode hex="0079"/>
  <outline>
    <contour>
      <point x="184.0" y="0.0" type="curve"/>
      <point x="223" y="0" type="line"/>
      <point x="163" y="-80"/>
      <point x="91" y="-148"/>
      <point x="36" y="-216" type="curve"/>
      <point x="148" y="-216" type="line"/>
      <point x="383" y="48"/>
      <point x="508" y="285"/>
      <point x="542.0" y="512.0" type="curve"/>
      <point x="445.0" y="512.0" type="line"/>
      <point x="420" y="362"/>
      <point x="340" y="173"/>
      <point x="252" y="57" type="curve"/>
      <point x="212.0" y="8.0" type="line"/>
      <point x="265.0" y="8.0" type="line"/>
      <point x="256.0" y="237.0"/>
      <point x="246.0" y="381.0"/>
      <point x="230.0" y="512.0" type="curve"/>
      <point x="130.0" y="512.0" type="line"/>
      <point x="147.0" y="384.0"/>
      <point x="157.0" y="224.0"/>
    </contour>
  </outline>
</glyph>
<glyph name="z" format="1">
  <advance width="432"/>
  <unicode hex="007A"/>
  <outline>
    <contour>
      <point x="416" y="82" type="line"/>
      <point x="92" y="82" type="line"/>
      <point x="47" y="62" type="line"/>
      <point x="35" y="0" type="line"/>
      <point x="400" y="0" type="line"/>
    </contour>
    <contour>
      <point x="479" y="512" type="line"/>
      <point x="125" y="512" type="line"/>
      <point x="109" y="430" type="line"/>
      <point x="459" y="430" type="line"/>
      <point x="464" y="435" type="line"/>
    </contour>
    <contour>
      <point x="355" y="430" type="line"/>
      <point x="47" y="62" type="line"/>
      <point x="71" y="60" type="line"/>
      <point x="175" y="60" type="line"/>
      <point x="175" y="73" type="line"/>
      <point x="464" y="435" type="line"/>
      <point x="464" y="438" type="line"/>
      <point x="355" y="438" type="line"/>
    </contour>
  </outline>
</glyph>
